<?xml version="1.0" encoding="UTF-8"?>
<svg id="Capa_1" data-name="Capa 1" xmlns="http://www.w3.org/2000/svg" viewBox="0 0 1050.94 411.67">
  <defs>
    <style>
      .cls-1, .cls-2 {
        fill: #fff;
      }

      .cls-3 {
        letter-spacing: .07em;
      }

      .cls-4 {
        letter-spacing: .12em;
      }

      .cls-2 {
        font-family: RATHER, RATHER;
        font-size: 167.63px;
      }

      .cls-5 {
        letter-spacing: .12em;
      }
    </style>
  </defs>
  <g>
    <path class="cls-1" d="M0,380.99s204.78,75.7,262.35-79.67c0,0,18.31-49.74,0-92.26,0,0,46.59,25.13,71.91,199.01,0,0,3.16,21.37-3.88-40.07-10.2-88.99-43.6-206.51-146-248.61,0,0,115.81,103.57,17.59,213.77-10.67,11.97-24.39,20.51-39.59,25.64-25.77,8.7-74.79,20.13-162.38,22.19"/>
    <path class="cls-1" d="M181.08,62.45l19.61-9.44-28.98-18.79L167.09,0l-26.82,21.75-33.98-6.18,12.4,32.23-16.38,30.41,34.49-1.83,23.86,24.97,5.69-21.31c39.19,18.33,194.92,105.19,194.92,329.72,0,0,22.92-228.37-180.2-347.31Z"/>
  </g>
  <text class="cls-2" transform="translate(412.11 287.38)"><tspan class="cls-3" x="0" y="0">F</tspan><tspan class="cls-5" x="100.24" y="0">o</tspan><tspan class="cls-4" x="254.79" y="0">r</tspan><tspan class="cls-5" x="374.82" y="0">tis</tspan></text>
</svg>